<?xml version="1.0" encoding="UTF-8"?> 
<svg xmlns="http://www.w3.org/2000/svg" width="1024" height="768">
    <rect width="1024" height="768" fill="#fff"/>
    <g transform="translate(32,0)">
        <g><title>Lune</title><!-- 0.51666 --><text x="256" y="64" style="text-anchor:middle;font-family:sans-serif">Lune</text><circle cx="256" cy="384" r="264.53"></circle></g>
        <g><title>Mercure</title><!-- 0.00361 --><text x="544" y="352" style="dominant-baseline: middle;font-family:sans-serif;font-size:12px" transform="rotate(-90 544,352)"> Mercure </text><circle cx="544" cy="384" r="1.85"></circle></g>
        <g><title>Vénus</title><!-- 0.01833 --><text x="560" y="352" style="dominant-baseline: middle;font-family:sans-serif;font-size:12px" transform="rotate(-90 560,352)"> Vénus </text><circle cx="560" cy="384" r="9.39"></circle></g>
        <g><title>Mars</title><!-- 0.00697 --><text x="576" y="352" style="dominant-baseline: middle;font-family:sans-serif;font-size:12px" transform="rotate(-90 576,352)"> Mars </text><circle cx="576" cy="384" r="3.57"></circle></g>
        <g><title>Jupiter</title><!-- 0.01391 --><text x="592" y="352" style="dominant-baseline: middle;font-family:sans-serif;font-size:12px" transform="rotate(-90 592,352)"> Jupiter </text><circle cx="592" cy="384" r="7.12"></circle></g>
        <g><title>Saturne</title><!-- 0.00558 --><text x="608" y="352" style="dominant-baseline: middle;font-family:sans-serif;font-size:12px" transform="rotate(-90 608,352)"> Saturne </text><circle cx="608" cy="384" r="2.86"></circle></g>
        <g><title>Uranus</title><!-- 0.00114 --><text x="624" y="352" style="dominant-baseline: middle;font-family:sans-serif;font-size:12px" transform="rotate(-90 624,352)"> Uranus </text><circle cx="624" cy="384" r="0.58"></circle></g>
        <g><title>Neptune</title><!-- 0.00067 --><text x="640" y="352" style="dominant-baseline: middle;font-family:sans-serif;font-size:12px" transform="rotate(-90 640,352)"> Neptune </text><circle cx="640" cy="384" r="0.34"></circle></g>
    </g>
</svg> 