<svg viewBox="0 0 144 144" version="1.1" xmlns="http://www.w3.org/2000/svg">
    <clipPath id="clip"> <rect x="0" y="0" width="144" height="144" /> </clipPath>
    <rect fill="#f6f6f6" id="background" width="146" height="146" y="-1" x="-1" />
    <g clip-path="url(#clip)">
      <g transform="scale(3.1341449522781666 -3.1341449522781666) translate(21.1055059118211 -74.73439147458804)"
         stroke="#000" stroke-width="0.15953314464174892" fill="none" >
        <path d="M -8.665590,28.797523 L -8.665124,28.721964 L -8.684400,28.503565 L -8.687294,26.808932 L -11.969419,26.867072 L -11.937224,24.051338 L -12.874222,23.953584 L -13.118754,23.395498 L -12.929102,21.837338 L -16.845194,21.844049 L -17.063423,21.486345 L -17.020428,21.939611 L -17.002962,21.937918 L -14.750955,22.023734 L -14.630833,22.411507 L -14.221168,22.896305 L -13.891110,24.396457 L -12.500963,25.579841 L -12.030759,26.975549 L -11.718220,27.057067 L -11.392555,27.927855 L -10.551263,28.048308 L -10.189424,27.902655 L -9.735343,27.902655 L -9.413037,28.157962 L -8.794884,28.194157 L -8.817828,28.797523 L -8.665590,28.797523 M 22.731099,64.970056 L 20.892245,64.944318 L 19.660640,65.139249 L 19.888481,65.899814 L 21.268449,66.465655 L 22.315724,66.159447 L 22.757764,65.883159 L 22.651052,65.409050 L 22.731099,64.970056 M 31.101042,98.153425 L 29.399550,97.015403 L 28.591930,96.756981 L 29.015573,98.753022 L 27.732292,99.913933 L 26.179622,98.923300 L 25.689213,96.833536 L 24.735679,95.605776 L 23.662050,96.273239 L 22.356238,96.135929 L 21.244936,97.618465 L 20.645593,96.873152 L 20.025269,96.757994 L 19.878560,94.943648 L 17.993868,95.380502 L 17.729182,93.875148 L 16.768879,93.884189 L 16.108712,92.012362 L 15.108411,89.203678 L 13.555690,85.811532 L 13.919905,85.014638 L 13.571916,84.102497 L 12.579935,84.141597 L 11.930569,82.032213 L 11.992064,79.159180 L 12.631147,78.095448 L 12.300366,75.692417 L 11.468272,74.330527 L 11.027369,73.206946 L 10.356557,74.404137 L 8.382000,72.165435 L 7.048748,71.720656 L 5.665835,72.690764 L 5.308234,74.785995 L 4.992078,79.521287 L 5.912900,80.905301 L 8.553411,82.756852 L 10.527709,85.108866 L 12.358347,88.430206 L 14.761146,93.343544 L 16.435927,95.369047 L 19.184028,98.900528 L 21.378416,100.182633 L 23.023742,100.025666 L 24.546543,102.522099 L 26.370050,102.386171 L 28.165547,103.000743 L 31.293418,100.773415 L 30.005435,99.978997 L 31.101042,98.153425 M 9.482140,31.828612 L 9.055603,33.927555 L 8.439103,34.405057 L 8.430473,34.692463 L 7.612642,35.403226 L 7.524482,36.308868 L 8.140981,36.984674 L 8.376368,37.992333 L 8.217824,39.170056 L 8.420964,39.810118 L 9.509994,40.316429 L 10.210002,40.165606 L 10.180650,39.532257 L 11.028867,39.992570 L 11.100026,39.752038 L 10.600005,39.141253 L 10.593287,38.568198 L 10.939519,38.261769 L 10.807847,37.201737 L 10.149593,36.591110 L 10.339659,35.933227 L 10.856836,35.912773 L 11.108501,35.342467 L 11.488787,35.155587 L 11.432253,34.242277 L 10.944790,33.902912 L 10.636901,33.525432 L 9.950225,33.073147 L 10.056575,32.589020 L 9.970017,32.097390 L 9.482140,31.828612 M -8.684400,28.503565 L -8.665124,28.721964 L -8.665590,28.797523 L -8.674116,30.142620 L -7.059228,30.988081 L -6.060632,31.163534 L -5.242129,31.473435 L -4.859646,32.053120 L -3.690441,32.513386 L -3.647498,33.379540 L -3.068980,33.482014 L -2.616605,33.917703 L -1.307899,34.116834 L -1.124551,34.577414 L -1.388049,34.830092 L -1.733455,36.094546 L -1.792986,36.830126 L -2.169914,37.610566 L -1.208603,38.281307 L -0.127454,38.495615 L 0.503877,39.006248 L 1.466919,39.384664 L 3.161699,39.606978 L 4.815758,39.708332 L 5.320120,39.522877 L 6.261820,40.015831 L 7.330385,40.025519 L 7.737078,39.734173 L 8.420964,39.810118 L 8.217824,39.170056 L 8.376368,37.992333 L 8.140981,36.984674 L 7.524482,36.308868 L 7.612642,35.403226 L 8.430473,34.692463 L 8.439103,34.405057 L 9.055603,33.927555 L 9.482140,31.828612 L 9.805634,30.810460 L 9.859998,30.278208 L 9.683885,29.349425 L 9.756128,28.833468 L 9.629056,28.216919 L 9.716286,27.512338 L 9.319411,27.046191 L 9.910693,26.237092 L 9.948261,25.763708 L 10.303847,25.150112 L 10.771364,25.351414 L 11.560669,24.841501 L 11.999506,24.157130 L 8.572893,22.093677 L 5.677566,19.995131 L 4.267419,19.522407 L 3.158133,19.418799 L 3.146661,20.093213 L 2.683588,20.266057 L 2.060991,20.570414 L 1.823228,21.070270 L -1.550055,23.418759 L -4.923337,25.805202 L -8.684400,28.503565 M 11.027369,73.206946 L 11.468272,74.330527 L 12.300366,75.692417 L 12.631147,78.095448 L 11.992064,79.159180 L 11.930569,82.032213 L 12.579935,84.141597 L 13.571916,84.102497 L 13.919905,85.014638 L 13.555690,85.811532 L 15.108411,89.203678 L 16.108712,92.012362 L 16.768879,93.884189 L 17.729182,93.875148 L 17.993868,95.380502 L 19.878560,94.943648 L 20.025269,96.757994 L 20.645593,96.873152 L 21.978535,95.515993 L 23.539473,93.676387 L 23.565880,89.706590 L 23.903379,88.742249 L 22.183173,88.049657 L 21.213517,86.375033 L 21.369631,84.940886 L 19.778876,83.105844 L 17.847779,81.199305 L 17.119555,78.194611 L 17.831346,76.741732 L 18.787722,75.620161 L 17.869225,73.395958 L 16.829185,72.943880 L 16.447710,69.785870 L 15.879786,68.085178 L 14.666681,68.258582 L 14.100721,66.847357 L 12.942911,66.766302 L 12.625101,68.449748 L 11.787942,70.526406 L 11.027369,73.206946 M 28.176709,68.201521 L 29.229513,67.752532 L 29.371572,67.310930 L 29.896294,67.522923 L 30.873909,67.100038 L 30.971836,66.275088 L 30.757534,65.805368 L 31.384472,64.678315 L 31.791424,64.367476 L 31.731273,64.061054 L 32.405599,63.763748 L 32.693643,63.315666 L 32.304519,62.950220 L 31.497640,63.008087 L 31.305201,62.852398 L 31.540018,62.301995 L 31.785970,61.251910 L 31.785992,61.251907 L 30.927549,61.155392 L 30.619454,60.799323 L 30.555117,59.989548 L 30.157364,60.144332 L 29.254938,60.067562 L 28.992835,60.443030 L 28.617613,60.162896 L 28.241615,60.395040 L 27.454066,60.427348 L 26.337959,60.814667 L 25.327788,60.941592 L 24.553106,60.905622 L 24.005078,60.467828 L 23.527071,60.405060 L 23.508002,61.124986 L 23.199494,61.881892 L 23.799199,62.217880 L 23.804935,62.878593 L 23.527536,63.514804 L 23.484128,64.261899 L 24.450684,64.250362 L 25.536354,64.892736 L 25.768433,65.866464 L 26.588279,66.424840 L 26.494331,67.213502 L 27.102460,67.511987 L 28.176709,68.201521 M 31.785992,61.251907 L 32.159440,61.186121 L 32.412058,61.557005 L 32.715761,61.474934 L 33.752700,61.632869 L 34.391731,60.712133 L 34.141978,60.385686 L 34.224816,59.887998 L 35.022183,59.810669 L 35.377910,59.121752 L 35.356116,58.811290 L 36.626168,58.259665 L 37.393460,58.507608 L 38.010631,57.776789 L 38.594988,57.793564 L 40.069040,57.289781 L 40.080789,56.838095 L 39.674650,56.039238 L 39.895620,55.206927 L 39.738278,54.707922 L 38.770570,54.598643 L 38.255112,54.183872 L 38.223538,53.528542 L 37.425137,53.411149 L 36.759855,52.938009 L 35.823685,52.861153 L 34.962342,52.320019 L 35.012659,51.549092 L 34.861792,51.592742 L 34.732017,51.876350 L 34.410402,51.933192 L 33.699462,52.242478 L 33.435988,51.885344 L 33.298567,52.041871 L 31.744140,52.407088 L 31.675307,52.949011 L 30.748749,52.769635 L 30.377609,51.972430 L 29.603289,50.914854 L 29.149725,51.159179 L 28.679779,50.930098 L 28.233554,51.192491 L 28.485269,51.347584 L 28.659987,51.839415 L 28.933717,52.299236 L 28.862972,52.558640 L 29.072107,52.674506 L 29.170654,52.473613 L 29.759972,52.431191 L 30.024659,52.538397 L 29.838210,52.685621 L 29.908852,52.902529 L 29.559674,53.273912 L 29.415135,53.888497 L 29.050868,54.130300 L 29.122698,54.633615 L 28.670891,55.035584 L 28.259547,55.091646 L 27.522537,55.560096 L 26.857824,55.411070 L 26.619337,55.189389 L 26.197450,55.189621 L 25.945941,54.839607 L 25.207743,54.696168 L 24.866317,54.467542 L 24.402056,54.831732 L 23.760958,54.837290 L 23.142236,55.002924 L 22.710531,54.682953 L 22.640820,55.083668 L 22.085608,55.492477 L 22.280842,56.102357 L 22.558138,56.498838 L 22.776419,56.409807 L 22.518450,57.098272 L 23.426508,58.389380 L 23.922757,58.571823 L 24.029986,59.013458 L 23.527071,60.405060 L 24.005078,60.467828 L 24.553106,60.905622 L 25.327788,60.941592 L 26.337959,60.814667 L 27.454066,60.427348 L 28.241615,60.395040 L 28.617613,60.162896 L 28.992835,60.443030 L 29.254938,60.067562 L 30.157364,60.144332 L 30.555117,59.989548 L 30.619454,60.799323 L 30.927549,61.155392 L 31.785992,61.251907 M 23.484128,64.261899 L 23.527536,63.514804 L 23.804935,62.878593 L 23.799199,62.217880 L 23.199494,61.881892 L 23.508002,61.124986 L 23.527071,60.405060 L 24.029986,59.013458 L 23.922757,58.571823 L 23.426508,58.389380 L 22.518450,57.098272 L 22.776419,56.409807 L 22.558138,56.498838 L 21.607808,57.088012 L 20.887955,56.870835 L 20.415839,57.028554 L 19.825023,56.699717 L 19.320713,57.244315 L 18.909575,57.035309 L 18.853144,57.128222 L 18.392914,57.890193 L 17.649445,57.984210 L 17.554567,58.473417 L 16.868769,58.648921 L 16.719476,58.244280 L 16.176253,58.568254 L 16.238627,59.001342 L 15.490972,59.138816 L 15.016996,59.649795 L 14.607098,60.673855 L 14.685026,61.232811 L 14.437600,62.108662 L 14.074521,62.698210 L 14.353315,63.142900 L 14.119686,63.998443 L 14.802900,64.496929 L 16.363477,65.289086 L 17.622832,65.874407 L 18.620859,65.581584 L 18.696255,65.160972 L 19.660640,65.139249 L 20.892245,64.944318 L 22.731099,64.970056 L 23.243987,64.786859 L 23.484128,64.261899 M 16.979667,55.043595 L 16.903754,54.433856 L 16.340584,54.430937 L 16.534268,54.109493 L 16.202298,53.162414 L 16.011664,52.916011 L 15.137092,52.879712 L 14.632472,52.549830 L 13.806475,52.662340 L 12.376485,53.038474 L 12.153088,53.547941 L 11.164828,53.292945 L 11.048556,53.014827 L 10.442701,53.222624 L 9.932448,53.262411 L 9.479970,53.529453 L 9.632932,53.889908 L 9.594226,54.152260 L 9.896068,54.233958 L 10.402084,53.823354 L 10.544504,54.213506 L 11.426414,54.150347 L 12.141357,54.416345 L 12.620760,54.370747 L 12.932627,54.067285 L 13.025851,54.319078 L 12.884103,55.292150 L 13.243357,55.483212 L 13.595946,56.181048 L 14.338898,55.693213 L 14.901447,56.313798 L 15.253416,56.427621 L 16.029647,55.963512 L 16.499283,56.042255 L 16.960288,55.756205 L 16.879983,55.564461 L 16.979667,55.043595 M 22.085608,55.492477 L 22.640820,55.083668 L 22.710531,54.682953 L 22.099768,54.370823 L 21.626515,53.370111 L 21.021952,52.382094 L 20.220192,52.109471 L 19.596045,52.173360 L 18.829838,51.794693 L 18.829825,51.794684 L 18.456062,51.580269 L 17.630066,51.856360 L 16.882515,52.475599 L 16.564808,52.654269 L 16.370505,53.146245 L 16.202298,53.162414 L 16.534268,54.109493 L 16.340584,54.430937 L 16.903754,54.433856 L 16.979667,55.043595 L 17.488473,54.660995 L 17.857133,54.498630 L 18.696513,54.681104 L 18.777025,54.981108 L 19.174365,55.025444 L 19.661364,55.258295 L 19.769471,55.162325 L 20.239054,55.349915 L 20.473562,55.704612 L 20.801294,55.796847 L 21.872236,55.338491 L 22.085608,55.492477 M 28.233554,51.192491 L 28.679779,50.930098 L 29.149725,51.159179 L 29.603289,50.914854 L 29.626543,50.549053 L 29.141612,50.245123 L 28.837858,50.377278 L 28.558081,48.691224 L 27.970107,48.836613 L 27.242400,49.341916 L 26.065159,49.018387 L 25.569272,48.664921 L 24.100679,48.737703 L 23.332302,48.953855 L 22.944832,48.852297 L 22.657150,49.424133 L 22.474008,49.667772 L 22.705726,49.904375 L 22.459022,50.079369 L 22.145088,49.764691 L 21.562023,50.172885 L 21.483526,50.755606 L 20.874313,51.089985 L 20.762175,51.544576 L 20.220192,52.109471 L 21.021952,52.382094 L 21.626515,53.370111 L 22.099768,54.370823 L 22.710531,54.682953 L 23.142236,55.002924 L 23.760958,54.837290 L 24.402056,54.831732 L 24.866317,54.467542 L 25.207743,54.696168 L 25.945941,54.839607 L 26.197450,55.189621 L 26.619337,55.189389 L 26.924176,55.043246 L 27.233873,54.600357 L 27.551166,53.974843 L 28.128030,53.101156 L 28.160018,52.462454 L 28.054443,51.846029 L 28.233554,51.192491 M 26.494331,67.213502 L 26.588279,66.424840 L 25.768433,65.866464 L 25.536354,64.892736 L 24.450684,64.250362 L 23.484128,64.261899 L 23.243987,64.786859 L 22.731099,64.970056 L 22.651052,65.409050 L 22.757764,65.883159 L 22.315724,66.159447 L 21.268449,66.465655 L 21.055800,67.953998 L 22.201157,68.505151 L 23.878264,68.389550 L 24.860684,68.567828 L 25.000934,68.193261 L 25.533047,68.077997 L 26.494331,67.213502 M 27.288185,70.587216 L 27.770016,70.160289 L 27.855282,69.269857 L 28.176709,68.201521 L 27.102460,67.511987 L 26.494331,67.213502 L 25.533047,68.077997 L 25.000934,68.193261 L 24.860684,68.567828 L 23.878264,68.389550 L 22.201157,68.505151 L 21.055800,67.953998 L 21.090424,69.314653 L 21.581866,70.470783 L 22.524341,71.107822 L 23.318453,69.721783 L 24.120730,69.757523 L 24.312863,71.182925 L 25.164594,71.515338 L 25.602810,71.284517 L 26.463532,70.590678 L 27.288185,70.587216 M 27.981127,74.415094 L 27.981120,74.415088 L 28.131699,74.072318 L 27.420150,72.953016 L 27.716686,71.180064 L 27.288185,70.587216 L 26.463532,70.590678 L 25.602810,71.284517 L 25.164594,71.515338 L 24.312863,71.182925 L 24.428928,72.299070 L 24.061198,72.059074 L 23.426560,72.737977 L 23.339795,73.850205 L 24.604214,74.396355 L 25.864189,74.682840 L 26.949136,74.356901 L 27.981114,74.415124 L 27.981127,74.415094 M 14.119686,63.998443 L 14.353315,63.142900 L 14.074521,62.698210 L 14.437600,62.108662 L 14.685026,61.232811 L 14.607098,60.673855 L 15.016996,59.649795 L 14.570718,59.483810 L 14.307013,59.666670 L 14.056228,59.364056 L 13.338132,59.057411 L 12.966837,58.664796 L 12.240111,58.323383 L 12.415191,57.859857 L 12.521024,57.207070 L 13.031329,56.837539 L 13.595946,56.181048 L 13.243357,55.483212 L 12.884103,55.292150 L 13.025851,54.319078 L 12.932627,54.067285 L 12.620760,54.370747 L 12.141357,54.416345 L 11.426414,54.150347 L 10.544504,54.213506 L 10.402084,53.823354 L 9.896068,54.233958 L 9.594226,54.152260 L 8.522612,54.606400 L 8.317301,54.283462 L 7.466759,54.293850 L 7.593676,55.358116 L 8.099279,56.395151 L 6.658230,56.676501 L 6.186320,57.078312 L 6.242751,57.755926 L 6.043073,58.107361 L 6.156658,59.168860 L 5.988658,60.845949 L 6.589397,60.846618 L 6.842870,61.458565 L 7.092053,62.969086 L 6.905140,63.535034 L 7.100425,63.891798 L 7.936239,63.983674 L 8.121706,63.611755 L 8.800734,64.445982 L 8.572118,65.086948 L 8.526229,66.067845 L 9.282049,65.838510 L 9.921906,66.103317 L 9.939580,65.433041 L 10.950112,65.031937 L 10.939467,64.425401 L 11.956252,64.745684 L 12.518440,65.215417 L 13.647467,64.539194 L 14.119686,63.998443 M 22.657150,49.424133 L 22.944832,48.852297 L 23.332302,48.953855 L 24.100679,48.737703 L 25.569272,48.664921 L 26.065159,49.018387 L 27.242400,49.341916 L 27.970107,48.836613 L 28.558081,48.691224 L 28.039095,48.120078 L 27.673898,47.143063 L 27.996720,46.371770 L 27.135739,46.552466 L 26.117042,46.129261 L 26.106138,45.463520 L 25.197201,45.337883 L 24.492645,45.803762 L 23.692074,45.437133 L 22.952377,45.475633 L 22.881374,46.360921 L 22.380526,46.793910 L 22.545012,46.984959 L 22.436595,47.146362 L 22.604801,47.579612 L 22.986019,48.007479 L 22.500157,48.601841 L 22.410446,49.108112 L 22.657150,49.424133 M 26.290003,37.771676 L 26.164998,37.410879 L 24.724982,37.307152 L 24.735007,37.508590 L 23.514978,37.747175 L 23.699980,38.269183 L 24.246665,37.855069 L 25.025015,37.924962 L 25.769208,37.837897 L 25.745023,37.624760 L 26.290003,37.771676 M 22.952377,45.475633 L 23.692074,45.437133 L 24.492645,45.803762 L 25.197201,45.337883 L 26.106138,45.463520 L 26.117042,46.129261 L 26.604196,45.774647 L 26.294602,44.942217 L 26.056942,44.793902 L 25.447677,44.831469 L 24.925848,44.956516 L 23.714811,44.613052 L 24.407999,43.874820 L 23.899968,43.661919 L 23.342999,43.660604 L 22.813988,44.335067 L 22.626299,44.047052 L 22.849748,43.267869 L 23.350027,42.660325 L 22.973099,42.378064 L 23.530016,41.787152 L 24.025025,41.417277 L 24.040011,40.700914 L 23.115003,41.036230 L 23.409972,40.391933 L 22.774972,40.259859 L 23.154225,39.156794 L 22.490028,39.141253 L 21.670026,39.683274 L 21.295011,40.688251 L 21.120034,41.532325 L 20.730032,42.120003 L 20.217712,42.854357 L 20.150016,43.223309 L 20.615000,43.855223 L 20.674997,44.281177 L 20.999990,44.471892 L 21.020040,44.818490 L 21.674161,44.935617 L 22.055378,45.225432 L 22.597308,45.199700 L 22.761770,45.431434 L 22.952377,45.475633 M 21.020040,44.818490 L 20.999990,44.471892 L 20.674997,44.281177 L 20.615000,43.855223 L 20.150016,43.223309 L 19.980000,43.314230 L 19.960002,43.600620 L 19.406082,44.039468 L 19.319059,44.665952 L 19.403550,45.571009 L 19.540027,45.985896 L 19.371769,46.197250 L 19.371768,46.197254 L 19.304486,46.625675 L 19.738051,47.293062 L 19.801613,47.037476 L 20.070700,47.157647 L 20.283755,46.793910 L 20.522950,46.655544 L 20.590247,46.167521 L 20.590247,46.167515 L 20.463175,45.711821 L 20.605182,45.140957 L 21.020040,44.818490 M 16.564808,52.654269 L 16.882515,52.475599 L 17.630066,51.856360 L 18.456062,51.580269 L 18.829825,51.794684 L 19.072769,51.239902 L 19.390476,50.834164 L 19.005485,50.301568 L 18.553214,50.614455 L 17.861783,50.594842 L 17.002146,50.830275 L 16.534939,50.798800 L 16.318157,50.504823 L 15.959367,50.830275 L 15.750026,50.243011 L 16.239660,49.586502 L 16.456443,49.154253 L 16.916156,48.636268 L 17.297373,48.330783 L 17.674922,47.757319 L 18.560000,47.241045 L 18.450017,47.010216 L 18.450016,47.010215 L 17.509970,47.513399 L 16.930006,48.005883 L 16.015385,48.414672 L 15.174454,49.435674 L 15.376250,49.540047 L 14.920309,50.129987 L 14.901602,50.606623 L 14.258748,50.830275 L 13.952255,50.219629 L 13.656976,50.692874 L 13.679403,51.186594 L 13.715060,51.209668 L 14.411968,51.160949 L 14.595109,51.401960 L 14.935244,51.168833 L 15.327675,51.141203 L 15.323954,51.540578 L 15.671530,51.687373 L 15.768733,52.269271 L 16.564808,52.654269 M 9.594226,54.152260 L 9.632932,53.889908 L 9.479970,53.529453 L 9.932448,53.262411 L 10.442701,53.222624 L 10.363378,52.624957 L 9.922837,52.380373 L 9.182882,52.562016 L 8.966306,51.978944 L 8.489952,51.933176 L 8.316630,52.161682 L 7.755992,51.673503 L 7.273851,51.605309 L 6.843593,51.913017 L 6.500100,52.546719 L 6.022609,52.319719 L 6.037389,52.977502 L 6.768714,53.801562 L 6.736571,54.177059 L 7.192202,54.040840 L 7.466759,54.293850 L 8.317301,54.283462 L 8.522612,54.606400 L 9.594226,54.152260 M 6.043073,58.107361 L 6.242751,57.755926 L 6.186320,57.078312 L 5.897759,57.045799 L 5.674052,57.179439 L 5.782417,58.048539 L 6.043073,58.107361 M 6.156658,59.168860 L 6.043073,58.107361 L 5.782417,58.048539 L 5.674052,57.179439 L 4.799222,57.885129 L 4.286023,57.764110 L 3.588184,58.499829 L 3.123252,59.131909 L 2.658422,59.157986 L 2.513573,59.716451 L 3.314971,60.031606 L 3.315011,60.031600 L 3.314971,60.031564 L 4.047071,59.906002 L 4.973991,60.238813 L 5.606976,59.539384 L 6.156658,59.168860 M 6.905140,63.535034 L 7.092053,62.969086 L 6.842870,61.458565 L 6.589397,60.846618 L 5.988658,60.845949 L 6.156658,59.168860 L 5.606976,59.539384 L 4.973991,60.238813 L 4.047071,59.906002 L 3.314971,60.031564 L 3.315011,60.031600 L 3.830289,60.472822 L 4.705997,62.882035 L 6.074183,63.582508 L 6.905140,63.535034 M -9.034818,46.201310 L -8.671946,46.543301 L -8.263857,46.740111 L -8.013175,46.080937 L -7.422513,46.082532 L -7.251309,46.252061 L -6.668606,46.205092 L -6.389088,45.534016 L -6.851127,45.173942 L -6.864020,44.144478 L -7.026413,43.952709 L -7.066592,43.336195 L -7.498632,43.229246 L -7.098037,42.454202 L -7.374092,41.612312 L -7.029281,41.233878 L -7.166508,40.889152 L -7.537105,40.415746 L -7.453726,39.999697 L -7.855613,39.674880 L -8.382816,39.850733 L -8.898857,39.713047 L -8.746101,40.696279 L -8.839998,41.476165 L -9.287464,41.593726 L -9.526571,42.078256 L -9.446989,42.921399 L -9.048305,43.392371 L -8.977353,43.919706 L -8.768684,44.710048 L -8.790853,45.271219 L -8.990789,45.749718 L -9.034818,46.201310 M -7.453726,39.999697 L -7.537105,40.415746 L -7.166508,40.889152 L -7.029281,41.233878 L -7.374092,41.612312 L -7.098037,42.454202 L -7.498632,43.229246 L -7.066592,43.336195 L -7.026413,43.952709 L -6.864020,44.144478 L -6.851127,45.173942 L -6.389088,45.534016 L -6.668606,46.205092 L -7.251309,46.252061 L -7.422513,46.082532 L -8.013175,46.080937 L -8.263857,46.740111 L -8.671946,46.543301 L -9.034818,46.201310 L -8.984433,47.163278 L -9.392884,47.754668 L -7.978190,48.747790 L -6.754492,48.498396 L -5.411886,48.507135 L -4.347843,48.271726 L -3.517532,48.343952 L -1.901351,48.298367 L -1.502771,47.764776 L 0.338047,47.145310 L 0.701591,47.439419 L 1.826793,46.825191 L 2.985999,47.000756 L 3.039484,46.216823 L 2.091842,45.326718 L 0.810525,45.046154 L 0.721331,44.601433 L 0.106692,43.873435 L -0.278711,42.815243 L 0.111291,42.079647 L -0.467124,41.509443 L -0.683389,40.684923 L -1.438382,40.433579 L -2.146453,39.470028 L -3.415781,39.451024 L -4.368901,39.474636 L -4.995219,39.035331 L -5.377160,38.567464 L -5.866432,38.670002 L -6.236694,39.088679 L -6.520191,39.805721 L -7.453726,39.999697 M -6.197885,64.185655 L -6.032985,62.984294 L -6.788857,61.510302 L -8.561617,60.551393 L -9.977086,60.795520 L -9.166283,62.504751 L -9.688525,64.209059 L -8.327987,65.550304 L -7.572168,66.362622 L -7.366031,65.431659 L -7.572168,64.512687 L -6.953730,64.536110 L -6.197885,64.185655 M 10.442701,53.222624 L 11.048556,53.014827 L 11.164828,53.292945 L 12.153088,53.547941 L 12.376485,53.038474 L 13.806475,52.662340 L 13.698110,51.949917 L 13.937630,51.339165 L 13.141606,51.547612 L 12.328581,51.040713 L 12.383875,50.337043 L 12.261453,49.935939 L 12.589237,49.224014 L 13.526906,48.525753 L 14.029821,47.392108 L 15.142570,46.301523 L 15.926191,46.309827 L 16.169897,46.013110 L 15.889346,45.746542 L 16.785002,45.264937 L 17.519169,44.863996 L 18.376687,44.176955 L 18.480247,43.932215 L 18.293385,43.464827 L 17.738380,44.074717 L 16.869596,44.290683 L 16.448743,43.444817 L 17.171490,42.963636 L 17.052841,42.290601 L 16.635088,42.214434 L 16.100961,41.119789 L 15.684087,41.022082 L 15.687963,41.410404 L 15.891981,42.095581 L 16.109332,42.369889 L 15.718814,43.118303 L 15.413613,43.774651 L 14.998496,43.937559 L 14.703268,44.504216 L 14.060672,44.743997 L 13.627985,45.276471 L 12.888082,45.362625 L 12.106683,45.965198 L 11.191906,46.841482 L 10.511948,47.624595 L 10.200029,48.985774 L 9.702488,49.147352 L 8.888946,49.607752 L 8.428561,49.418976 L 7.850767,48.773833 L 7.435185,48.672389 L 7.549596,49.274898 L 7.007562,49.451834 L 6.749955,50.539327 L 7.096652,50.971437 L 6.802355,51.507344 L 6.843593,51.913017 L 7.273851,51.605309 L 7.755992,51.673503 L 8.316630,52.161682 L 8.489952,51.933176 L 8.966306,51.978944 L 9.182882,52.562016 L 9.922837,52.380373 L 10.363378,52.624957 L 10.442701,53.222624 M 14.761249,41.320440 L 15.520376,41.431486 L 15.160243,40.434816 L 15.309898,40.045384 L 15.099988,39.402529 L 14.335229,39.872956 L 13.826733,40.008152 L 12.431004,40.647796 L 12.570944,41.298200 L 13.741156,41.182065 L 14.761249,41.320440 M 8.709991,44.894209 L 9.210012,45.305317 L 9.809975,44.366629 L 9.669519,42.644025 L 9.214818,42.725456 L 8.806936,42.295416 L 8.428302,42.636892 L 8.388253,44.206730 L 8.159998,44.960415 L 8.709991,44.894209 M 9.921906,66.103317 L 9.282049,65.838510 L 8.526229,66.067845 L 8.120311,67.041278 L 8.089977,68.870927 L 8.256582,69.362308 L 8.543438,69.912606 L 9.424469,70.026992 L 9.775559,70.537786 L 10.580006,71.064061 L 10.546106,70.107589 L 10.250000,69.508691 L 10.369993,68.997950 L 10.912182,68.723465 L 10.667804,68.044093 L 10.369993,68.239030 L 9.649985,66.957034 L 9.921906,66.103317 M 12.370904,68.097919 L 12.690006,67.204444 L 12.089991,65.784971 L 11.043543,66.771804 L 10.903914,67.506014 L 12.370904,68.097919 M -6.197885,64.185655 L -6.953730,64.536110 L -7.572168,64.512687 L -7.366031,65.431659 L -7.572168,66.362622 L -6.733847,66.434792 L -5.661949,65.360514 L -6.197885,64.185655 M -3.093831,63.404724 L -3.092080,63.404546 L -2.945009,64.385095 L -3.614701,65.440455 L -3.630005,65.464759 L -4.844169,65.769283 L -5.082527,66.240249 L -4.719112,67.024942 L -5.047981,67.513182 L -5.586398,66.677352 L -5.644999,68.391970 L -6.149981,69.316729 L -5.786825,71.230644 L -5.009999,72.771125 L -4.211495,72.619216 L -3.005005,72.780706 L -4.073828,70.733367 L -3.055002,70.989187 L -1.959281,70.979424 L -2.219988,69.472089 L -3.119003,67.851553 L -2.085009,67.737640 L -2.005676,67.550390 L -1.114991,65.481984 L -0.430485,65.205102 L 0.184981,63.271440 L 0.469977,62.613115 L 1.681531,62.297813 L 1.559988,61.249172 L 1.050562,60.773369 L 1.449865,59.941442 L 0.550334,59.108785 L -0.787517,59.123411 L -2.489998,58.689856 L -2.956274,58.999995 L -3.617448,58.263987 L -4.542508,58.441588 L -5.245023,57.845678 L -5.776567,58.156710 L -4.309990,59.814547 L -3.414851,60.160162 L -3.422719,60.161507 L -4.984367,60.429221 L -5.267296,61.072599 L -4.222347,61.577707 L -4.770013,62.463975 L -4.579999,63.556618 L -3.093831,63.404724 M 13.806475,52.662340 L 14.632472,52.549830 L 15.137092,52.879712 L 16.011664,52.916011 L 16.202298,53.162414 L 16.370505,53.146245 L 16.564808,52.654269 L 15.768733,52.269271 L 15.671530,51.687373 L 15.323954,51.540578 L 15.327675,51.141203 L 14.935244,51.168833 L 14.595109,51.401960 L 14.411968,51.160949 L 13.715060,51.209668 L 13.937630,51.339165 L 13.698110,51.949917 L 13.806475,52.662340 M 22.558138,56.498838 L 22.280842,56.102357 L 22.085608,55.492477 L 21.872236,55.338491 L 20.801294,55.796847 L 20.473562,55.704612 L 20.239054,55.349915 L 19.769471,55.162325 L 19.661364,55.258295 L 19.174365,55.025444 L 18.777025,54.981108 L 18.696513,54.681104 L 17.857133,54.498630 L 17.488473,54.660995 L 16.979667,55.043595 L 16.879983,55.564461 L 16.960288,55.756205 L 17.101985,56.089564 L 17.545007,56.063827 L 17.886485,56.221053 L 17.913512,56.362694 L 18.104973,56.435110 L 18.170498,56.783030 L 18.399994,56.849707 L 18.554971,57.126351 L 18.853144,57.128222 L 18.909575,57.035309 L 19.320713,57.244315 L 19.825023,56.699717 L 20.415839,57.028554 L 20.887955,56.870835 L 21.607808,57.088012 L 22.558138,56.498838 M 15.016996,59.649795 L 15.490972,59.138816 L 16.238627,59.001342 L 16.176253,58.568254 L 16.719476,58.244280 L 16.868769,58.648921 L 17.554567,58.473417 L 17.649445,57.984210 L 18.392914,57.890193 L 18.853144,57.128222 L 18.554971,57.126351 L 18.399994,56.849707 L 18.170498,56.783030 L 18.104973,56.435110 L 17.913512,56.362694 L 17.886485,56.221053 L 17.545007,56.063827 L 17.101985,56.089564 L 16.960288,55.756205 L 16.499283,56.042255 L 16.029647,55.963512 L 15.253416,56.427621 L 14.901447,56.313798 L 14.338898,55.693213 L 13.595946,56.181048 L 13.031329,56.837539 L 12.521024,57.207070 L 12.415191,57.859857 L 12.240111,58.323383 L 12.966837,58.664796 L 13.338132,59.057411 L 14.056228,59.364056 L 14.307013,59.666670 L 14.570718,59.483810 L 15.016996,59.649795 M -2.169914,37.610566 L -1.792986,36.830126 L -1.733455,36.094546 L -1.388049,34.830092 L -1.124551,34.577414 L -1.307899,34.116834 L -2.616605,33.917703 L -3.068980,33.482014 L -3.647498,33.379540 L -3.690441,32.513386 L -4.859646,32.053120 L -5.242129,31.473435 L -6.060632,31.163534 L -7.059228,30.988081 L -8.674116,30.142620 L -8.665590,28.797523 L -8.817828,28.797523 L -8.794884,28.194157 L -9.413037,28.157962 L -9.735343,27.902655 L -10.189424,27.902655 L -10.551263,28.048308 L -11.392555,27.927855 L -11.718220,27.057067 L -12.030759,26.975549 L -12.500963,25.579841 L -13.891110,24.396457 L -14.221168,22.896305 L -14.630833,22.411507 L -14.750955,22.023734 L -17.002962,21.937918 L -17.020428,21.939611 L -16.973248,22.438237 L -16.589137,22.732171 L -16.261922,23.295885 L -16.326414,23.663129 L -15.982611,24.431787 L -15.426004,25.127959 L -15.089332,25.304945 L -14.824645,25.947538 L -14.800926,26.537133 L -14.439940,27.224576 L -13.773805,27.631617 L -13.139942,28.779147 L -13.121613,28.794951 L -12.618837,29.229284 L -11.688919,29.354494 L -10.900957,30.132179 L -10.399592,30.436717 L -9.564811,31.396247 L -9.814718,32.841087 L -9.434793,33.851326 L -9.300693,34.474321 L -8.657476,35.278962 L -7.654178,35.826587 L -6.912544,36.324689 L -6.244342,37.583008 L -5.929994,38.336918 L -5.193863,38.330995 L -4.591006,37.809326 L -3.640057,37.894114 L -2.604306,37.623653 L -2.169914,37.610566 M 36.866230,22.561415 L 32.900000,22.561415 L 29.020000,22.561415 L 25.000000,22.561415 L 25.000000,26.588426 L 25.000000,30.597128 L 24.700070,31.523961 L 24.957620,32.239449 L 24.802870,32.737758 L 25.164820,33.299531 L 26.495330,33.318934 L 27.457620,33.008968 L 28.450480,32.663609 L 28.913530,32.482040 L 29.683420,32.851752 L 30.095030,33.187207 L 30.976930,33.283933 L 31.687960,33.135864 L 31.960410,32.556103 L 32.192470,32.937679 L 32.993920,32.661625 L 33.773400,32.595585 L 34.265435,32.889745 L 34.265440,32.889749 L 34.823243,31.197375 L 34.922600,30.898544 L 34.641740,30.437671 L 34.426550,29.576246 L 34.154510,28.986067 L 33.921360,28.788801 L 33.588110,29.153596 L 33.136760,29.659969 L 32.423230,31.301094 L 32.320460,31.196625 L 32.734820,29.987396 L 33.348760,28.846603 L 34.104550,27.099588 L 34.473870,26.495317 L 34.795070,25.870498 L 35.692410,24.654083 L 35.493720,24.463481 L 35.525980,23.755155 L 36.690690,22.782513 L 36.866230,22.561415 M 25.000000,22.561415 L 25.000000,20.422219 L 23.850000,20.418984 L 23.837660,19.973120 L 19.849260,22.017812 L 15.860850,24.089610 L 14.851300,23.495015 L 14.143871,23.092214 L 13.581425,23.687836 L 11.999506,24.157130 L 11.560669,24.841501 L 10.771364,25.351414 L 10.303847,25.150112 L 9.948261,25.763708 L 9.910693,26.237092 L 9.319411,27.046191 L 9.716286,27.512338 L 9.629056,28.216919 L 9.756128,28.833468 L 9.683885,29.349425 L 9.859998,30.278208 L 9.805634,30.810460 L 9.482140,31.828612 L 9.970017,32.097390 L 10.056575,32.589020 L 9.950225,33.073147 L 10.636901,33.525432 L 10.944790,33.902912 L 11.432253,34.242277 L 11.488787,35.155587 L 12.663310,34.745319 L 13.083260,34.847719 L 13.918680,34.649221 L 15.245630,34.119425 L 15.713940,33.073370 L 16.611620,32.846282 L 18.021090,32.358054 L 19.086410,31.780939 L 19.574040,32.081711 L 20.053350,32.616929 L 19.820330,33.514105 L 20.133970,34.087641 L 20.854520,34.643088 L 21.542980,34.805314 L 22.895760,34.562044 L 23.236800,34.032432 L 23.609130,34.027434 L 23.927500,33.826053 L 24.921140,33.687787 L 25.164820,33.299531 L 24.802870,32.737758 L 24.957620,32.239449 L 24.700070,31.523961 L 25.000000,30.597128 L 25.000000,26.588426 L 25.000000,22.561415 M 18.560000,47.241045 L 17.674922,47.757319 L 17.297373,48.330783 L 16.916156,48.636268 L 16.456443,49.154253 L 16.239660,49.586502 L 15.750026,50.243011 L 15.959367,50.830275 L 16.318157,50.504823 L 16.534939,50.798800 L 17.002146,50.830275 L 17.861783,50.594842 L 18.553214,50.614455 L 19.005485,50.301568 L 19.005480,50.301563 L 19.368030,50.305471 L 19.117610,49.687151 L 19.599760,49.150399 L 19.454000,48.498660 L 19.218520,48.437597 L 19.031650,48.311762 L 18.706480,47.992318 L 18.560000,47.241045 M 22.380526,46.793910 L 22.881374,46.360921 L 22.952377,45.475633 L 22.761770,45.431434 L 22.597308,45.199700 L 22.055378,45.225432 L 21.674161,44.935617 L 21.020040,44.818490 L 20.605182,45.140957 L 20.463175,45.711821 L 20.590247,46.167515 L 20.590247,46.167521 L 20.717310,46.156380 L 20.762160,46.431680 L 21.352700,46.640598 L 21.576636,46.692487 L 21.917080,46.771435 L 22.380526,46.793910 M 18.829825,51.794684 L 18.829838,51.794693 L 19.596045,52.173360 L 20.220192,52.109471 L 20.762175,51.544576 L 20.874313,51.089985 L 21.483526,50.755606 L 21.562023,50.172885 L 22.145088,49.764691 L 22.459022,50.079369 L 22.705726,49.904375 L 22.474008,49.667772 L 22.657150,49.424133 L 22.410446,49.108112 L 22.500157,48.601841 L 22.986019,48.007479 L 22.604801,47.579612 L 22.436595,47.146362 L 22.545012,46.984959 L 22.380526,46.793910 L 21.917080,46.771435 L 21.576636,46.692487 L 21.543320,46.793896 L 21.662920,46.954951 L 21.775050,47.285516 L 21.633020,47.277994 L 21.438660,47.530526 L 21.274210,47.594726 L 21.143395,47.812222 L 20.956510,47.897484 L 20.814480,48.091064 L 20.635080,48.015093 L 20.496790,47.560736 L 20.257580,47.462612 L 20.339800,47.579613 L 19.958570,47.863372 L 19.630000,48.011073 L 19.483890,48.201340 L 19.218520,48.437597 L 19.454000,48.498660 L 19.599760,49.150399 L 19.117610,49.687151 L 19.368030,50.305471 L 19.005480,50.301563 L 19.005485,50.301568 L 19.390476,50.834164 L 19.072769,51.239902 L 18.829825,51.794684 M 20.070700,47.157647 L 19.801613,47.037476 L 19.738051,47.293062 L 19.304486,46.625675 L 19.371768,46.197254 L 19.162460,46.301362 L 18.882140,46.741518 L 18.450017,47.010216 L 18.560000,47.241045 L 18.706480,47.992318 L 19.031650,48.311762 L 19.218520,48.437597 L 19.483890,48.201340 L 19.630000,48.011073 L 19.958570,47.863372 L 20.339800,47.579613 L 20.257580,47.462612 L 20.070700,47.157647 M 20.590247,46.167521 L 20.522950,46.655544 L 20.283755,46.793910 L 20.070700,47.157647 L 20.257580,47.462612 L 20.496790,47.560736 L 20.635080,48.015093 L 20.814480,48.091064 L 20.956510,47.897484 L 21.143395,47.812222 L 21.274210,47.594726 L 21.438660,47.530526 L 21.633020,47.277994 L 21.775050,47.285516 L 21.662920,46.954951 L 21.543320,46.793896 L 21.576636,46.692487 L 21.352700,46.640598 L 20.762160,46.431680 L 20.717310,46.156380 L 20.590247,46.167521 " fill="#ffffff" />
<path d="M 6.186320,57.078312 L 6.658230,56.676501 L 8.099279,56.395151 L 7.593676,55.358116 L 7.466759,54.293850 L 7.192202,54.040840 L 6.736571,54.177059 L 6.768714,53.801562 L 6.037389,52.977502 L 6.022609,52.319719 L 6.500100,52.546719 L 6.843593,51.913017 L 6.802355,51.507344 L 7.096652,50.971437 L 6.749955,50.539327 L 7.007562,49.451834 L 7.549596,49.274898 L 7.435185,48.672389 L 6.529245,47.894678 L 4.556963,48.266498 L 3.100411,47.821142 L 2.985999,47.000756 L 1.826793,46.825191 L 0.701591,47.439419 L 0.338047,47.145310 L -1.502771,47.764776 L -1.901351,48.298367 L -1.384225,49.128340 L -1.193798,51.947239 L -2.225724,53.472991 L -2.963276,54.219328 L -4.491555,54.791520 L -4.592350,55.888136 L -3.295814,56.218340 L -1.616511,55.827969 L -1.933494,57.560737 L -0.989469,56.899386 L 1.338761,58.105989 L 1.639001,59.395298 L 2.513573,59.716451 L 2.658422,59.157986 L 3.123252,59.131909 L 3.588184,58.499829 L 4.286023,57.764110 L 4.799222,57.885129 L 5.674052,57.179439 L 5.897759,57.045799 L 6.186320,57.078312 M 8.746009,47.211305 L 9.390001,47.731909 L 9.560016,46.567312 L 9.229752,45.531606 L 8.775723,45.803382 L 8.544213,46.707744 L 8.746009,47.211305 " fill="#c00" />
      </g>
    </g>
  </svg>