<?xml version="1.0" encoding="UTF-8"?>
<svg xmlns="http://www.w3.org/2000/svg" xmlns:xlink="http://www.w3.org/1999/xlink" font-size="10px" font-family="sans-serif" width="262" height="262" viewBox="-41.5 -41.5 262 262"><g shape-rendering="crispEdges"><path fill="white" stroke="none" d="M -36.5 -36.5 L 216.5 -36.5 216.5 216.5 -36.5 216.5 z"></path></g><g shape-rendering="crispEdges"></g><g shape-rendering="crispEdges"></g><g shape-rendering="crispEdges"></g><g shape-rendering="crispEdges"><path fill="none" stroke="rgb(127, 127, 127)" d="M 36 0 L 36 180" stroke-width="1"></path><path fill="none" stroke="rgb(127, 127, 127)" d="M 72 0 L 72 180" stroke-width="1"></path><path fill="none" stroke="rgb(127, 127, 127)" d="M 108 0 L 108 180" stroke-width="1"></path><path fill="none" stroke="rgb(127, 127, 127)" d="M 144 0 L 144 180" stroke-width="1"></path><path fill="none" stroke="rgb(127, 127, 127)" d="M 0 36 L 180 36" stroke-width="1"></path><path fill="none" stroke="rgb(127, 127, 127)" d="M 0 72 L 180 72" stroke-width="1"></path><path fill="none" stroke="rgb(127, 127, 127)" d="M 0 108 L 180 108" stroke-width="1"></path><path fill="none" stroke="rgb(127, 127, 127)" d="M 0 144 L 180 144" stroke-width="1"></path></g><g shape-rendering="crispEdges"></g><g shape-rendering="auto"></g><g shape-rendering="auto"></g><g shape-rendering="auto"><path fill="black" stroke="none" d="M 162 -3.6000000000000005 L 166.5 -9 L 157.5 -9"></path><text fill="black" x="162" y="-12.850000000000001" text-anchor="middle" font-size="25">4</text><path fill="black" stroke="none" d="M 183.6 54 L 189 58.5 L 189 49.5 z"></path><text fill="black" x="201.6" y="62.75" text-anchor="middle" font-size="25">4</text><path fill="black" stroke="none" d="M -3.6000000000000005 126 L -9 130.5 L -9 121.5 z"></path><text fill="black" x="-21.6" y="134.75" text-anchor="middle" font-size="25">1</text><path fill="black" stroke="none" d="M 183.6 126 L 189 130.5 L 189 121.5 z"></path><text fill="black" x="201.6" y="134.75" text-anchor="middle" font-size="25">2</text><path fill="black" stroke="none" d="M 90 183.6 L 94.5 189 L 85.5 189"></path><text fill="black" x="90" y="210.35" text-anchor="middle" font-size="25">4</text><path fill="black" stroke="none" d="M 126 183.6 L 130.5 189 L 121.5 189"></path><text fill="black" x="126" y="210.35" text-anchor="middle" font-size="25">3</text></g><g shape-rendering="crispEdges"><path fill="black" stroke="none" d="M -2 -2 L 2 -2 2 182 -2 182 z"></path><path fill="black" stroke="none" d="M 178 -2 L 182 -2 182 182 178 182 z"></path><path fill="black" stroke="none" d="M -2 -2 L 182 -2 182 2 -2 2 z"></path><path fill="black" stroke="none" d="M -2 178 L 182 178 182 182 -2 182 z"></path></g><g shape-rendering="crispEdges"></g></svg>